<svg xmlns="http://www.w3.org/2000/svg" width="202" height="47" fill="none"><path fill="#FF630B" fill-rule="evenodd" d="M13.75 3.516a8.51 8.51 0 0 0-6.016 2.491l-7.699 7.7v3.523c0 2.49 1.07 4.73 2.774 6.286A8.485 8.485 0 0 0 .035 29.8v3.524l7.699 7.699a8.507 8.507 0 0 0 12.301-.282 8.508 8.508 0 0 0 12.301.282l7.7-7.699V29.8c0-2.49-1.07-4.73-2.775-6.285a8.485 8.485 0 0 0 2.774-6.286v-3.524l-7.699-7.699a8.508 8.508 0 0 0-12.3.283 8.485 8.485 0 0 0-6.286-2.774zm12.044 20a8.528 8.528 0 0 1-.282-.27l-5.477-5.477-5.476 5.477a8.528 8.528 0 0 1-.283.27c.096.087.19.177.283.27l5.476 5.476 5.477-5.477c.092-.092.186-.182.282-.27zm-3.537 9.809v1.683a4.063 4.063 0 0 0 6.937 2.873l6.397-6.397v-1.683a4.063 4.063 0 0 0-6.937-2.873l-6.397 6.397zm-4.444 0-6.397-6.397A4.063 4.063 0 0 0 4.48 29.8v1.683l6.397 6.397a4.063 4.063 0 0 0 6.936-2.873v-1.683zm0-21.302v1.683l-6.397 6.397A4.063 4.063 0 0 1 4.48 17.23v-1.683l6.397-6.397a4.064 4.064 0 0 1 6.936 2.873zm10.841 8.08-6.397-6.397v-1.683a4.063 4.063 0 0 1 6.937-2.873l6.397 6.397v1.683a4.063 4.063 0 0 1-6.937 2.873z" clip-rule="evenodd"/><path fill="#361807" d="M54.25 25.71V38h-5.897V16.74h5.62v3.752h.249a5.93 5.93 0 0 1 2.367-2.935c1.107-.729 2.45-1.093 4.027-1.093 1.477 0 2.764.323 3.862.969 1.098.646 1.952 1.568 2.56 2.768.61 1.19.914 2.611.914 4.263V38h-5.896V25.516c.01-1.301-.323-2.316-.997-3.045-.673-.738-1.6-1.107-2.782-1.107-.793 0-1.495.17-2.103.512-.6.341-1.07.84-1.412 1.494-.332.646-.503 1.426-.512 2.34zm26.808 12.705c-2.15 0-4.009-.456-5.578-1.37-1.559-.922-2.763-2.205-3.612-3.848-.849-1.651-1.273-3.566-1.273-5.744 0-2.195.424-4.115 1.273-5.757.849-1.652 2.053-2.934 3.612-3.848 1.569-.923 3.428-1.384 5.578-1.384 2.15 0 4.005.461 5.564 1.384 1.569.914 2.778 2.196 3.627 3.848.848 1.642 1.273 3.561 1.273 5.757 0 2.178-.425 4.093-1.273 5.744-.85 1.643-2.058 2.925-3.627 3.848-1.56.914-3.414 1.37-5.564 1.37zm.028-4.567c.978 0 1.795-.277 2.45-.83.655-.563 1.148-1.33 1.48-2.298.342-.969.513-2.072.513-3.308 0-1.236-.17-2.34-.512-3.308-.332-.969-.826-1.735-1.481-2.297-.655-.563-1.472-.845-2.45-.845-.987 0-1.818.282-2.491.845-.665.562-1.168 1.328-1.51 2.297-.331.969-.497 2.072-.497 3.308 0 1.236.166 2.34.498 3.308.341.969.844 1.735 1.509 2.297.673.554 1.504.831 2.49.831zm32.258-17.108L105.912 38h-6.644l-7.432-21.26h6.228l4.415 15.212h.222l4.401-15.211h6.242zm7.363 21.662c-1.357 0-2.566-.236-3.627-.706-1.061-.48-1.901-1.186-2.519-2.118-.609-.941-.913-2.113-.913-3.516 0-1.18.217-2.172.65-2.975a5.267 5.267 0 0 1 1.772-1.938 8.583 8.583 0 0 1 2.547-1.107c.959-.25 1.965-.425 3.017-.526a79.34 79.34 0 0 0 2.989-.36c.757-.12 1.306-.295 1.648-.526.341-.23.512-.572.512-1.024v-.083c0-.877-.277-1.555-.831-2.035-.544-.48-1.319-.72-2.325-.72-1.061 0-1.905.236-2.533.706-.627.462-1.043 1.043-1.246 1.744l-5.453-.443c.277-1.291.821-2.408 1.633-3.35.812-.95 1.86-1.678 3.142-2.186 1.292-.517 2.787-.775 4.485-.775 1.181 0 2.311.138 3.391.415 1.088.277 2.053.706 2.892 1.287a6.255 6.255 0 0 1 2.007 2.243c.489.904.734 1.988.734 3.252v14.34h-5.592v-2.949h-.166a5.993 5.993 0 0 1-1.37 1.758c-.572.498-1.26.89-2.062 1.176-.803.277-1.731.416-2.782.416zm1.688-4.07c.867 0 1.633-.17 2.298-.512a4.078 4.078 0 0 0 1.564-1.412c.378-.59.567-1.259.567-2.006v-2.256c-.184.12-.438.23-.761.332-.314.092-.669.18-1.066.263a53.67 53.67 0 0 1-1.19.207c-.397.056-.757.106-1.08.153a7.295 7.295 0 0 0-1.813.484c-.517.221-.918.521-1.204.9-.286.369-.429.83-.429 1.384 0 .803.291 1.416.872 1.84.59.416 1.338.623 2.242.623zm21.546 4.014c-1.615 0-3.078-.415-4.388-1.245-1.301-.84-2.334-2.072-3.1-3.696-.757-1.633-1.135-3.635-1.135-6.007 0-2.436.392-4.461 1.176-6.076.785-1.624 1.827-2.837 3.128-3.64a8.018 8.018 0 0 1 4.305-1.218c1.19 0 2.182.203 2.976.609.802.397 1.448.895 1.937 1.495.499.59.877 1.172 1.135 1.744h.18V9.654h5.883V38h-5.814v-3.405h-.249a7.619 7.619 0 0 1-1.176 1.758c-.498.572-1.149 1.047-1.952 1.426-.793.378-1.762.567-2.906.567zm1.868-4.692c.951 0 1.753-.258 2.409-.775.664-.526 1.171-1.26 1.522-2.2.36-.942.54-2.044.54-3.308 0-1.265-.176-2.363-.526-3.295-.351-.932-.858-1.651-1.523-2.159-.664-.507-1.471-.761-2.422-.761-.969 0-1.785.263-2.45.789-.664.526-1.167 1.255-1.508 2.187-.342.932-.512 2.011-.512 3.238 0 1.237.17 2.33.512 3.28.35.942.853 1.68 1.508 2.215.665.526 1.481.79 2.45.79zm23.618 4.761c-2.186 0-4.069-.443-5.647-1.328-1.568-.895-2.777-2.16-3.626-3.793-.849-1.642-1.273-3.584-1.273-5.827 0-2.186.424-4.106 1.273-5.757.849-1.652 2.044-2.94 3.585-3.862 1.55-.923 3.368-1.384 5.453-1.384 1.403 0 2.708.226 3.917.678a8.697 8.697 0 0 1 3.184 2.007c.913.895 1.623 2.02 2.131 3.377.507 1.347.761 2.925.761 4.734v1.62h-17.951v-3.655h12.401c0-.849-.184-1.6-.554-2.256a3.965 3.965 0 0 0-1.536-1.536c-.646-.378-1.398-.568-2.256-.568-.895 0-1.688.208-2.381.623a4.368 4.368 0 0 0-1.605 1.647c-.388.683-.586 1.444-.595 2.284v3.474c0 1.052.194 1.96.581 2.727a4.255 4.255 0 0 0 1.675 1.771c.72.415 1.573.623 2.56.623.656 0 1.255-.092 1.8-.277a3.74 3.74 0 0 0 1.398-.83c.387-.37.682-.821.885-1.357l5.454.36a7.45 7.45 0 0 1-1.703 3.433c-.849.969-1.947 1.725-3.294 2.27-1.338.535-2.883.802-4.637.802zm17.006-21.675 3.903 7.433 4-7.432h6.049l-6.159 10.63L200.551 38h-6.021l-4.194-7.35-4.124 7.35h-6.09l6.311-10.63-6.09-10.63h6.09z"/></svg>