<svg xmlns="http://www.w3.org/2000/svg" width="176" height="46" fill="none"><path fill="#26AAF2" d="M40.424 15.064a18.79 18.79 0 0 0-2.839-4.566 19.2 19.2 0 0 0-14.07-7.034 19.217 19.217 0 0 0-14.61 5.834 19.186 19.186 0 0 0-5.342 14.786 19.177 19.177 0 0 0 7.508 13.814 18.589 18.589 0 0 0 4.542 2.595 19.022 19.022 0 0 0 7.197 1.419 19.254 19.254 0 0 0 13.576-5.643 19.223 19.223 0 0 0 5.627-13.574 18.978 18.978 0 0 0-1.59-7.63zm-17.629-7.7a15.193 15.193 0 0 1 6.416 1.418 6.286 6.286 0 0 1-1.533.44 8.135 8.135 0 0 0-6.884 6.878 4.253 4.253 0 0 1-3.846 3.758 8.134 8.134 0 0 0-6.884 6.878 4.125 4.125 0 0 1-1.122 2.468 15.306 15.306 0 0 1 .907-14.75 15.325 15.325 0 0 1 12.96-7.12l-.014.03zM11.057 32.621c.17-.156.34-.298.511-.468a7.769 7.769 0 0 0 2.3-4.58 4.14 4.14 0 0 1 1.234-2.582 4.019 4.019 0 0 1 2.57-1.22 8.135 8.135 0 0 0 6.883-6.878 4.141 4.141 0 0 1 1.235-2.709 4.076 4.076 0 0 1 2.598-1.177 7.78 7.78 0 0 0 4.258-2.028 14.907 14.907 0 0 1 3.35 3.942c-.055.073-.117.14-.185.199a4.074 4.074 0 0 1-2.57 1.248 8.107 8.107 0 0 0-6.883 6.879 4.254 4.254 0 0 1-3.818 3.8 8.179 8.179 0 0 0-6.927 6.879 4.453 4.453 0 0 1-.695 1.943 15.453 15.453 0 0 1-3.86-3.248zm11.738 5.475a15.4 15.4 0 0 1-4.258-.596 8.192 8.192 0 0 0 .909-2.837 4.253 4.253 0 0 1 3.803-3.8 8.136 8.136 0 0 0 4.595-2.293 8.123 8.123 0 0 0 2.303-4.586 4.253 4.253 0 0 1 3.804-3.8 8.11 8.11 0 0 0 3.634-1.42 15.333 15.333 0 0 1-2.666 13.257 15.355 15.355 0 0 1-12.124 6.004v.07z"/><path fill="#263136" d="M49.125 34V12.323h17.044v3.493H53.642v5.466H65.22v3.492H53.642v5.732h13.134v3.492H49.125zm18.278-8.314c0-2.758.557-4.884 1.67-6.377 1.139-1.518 2.72-2.278 4.745-2.278 2.43 0 4.112 1 5.049 3 0-.482.025-1 .076-1.557.05-.582.1-.962.151-1.139h4.138a85.49 85.49 0 0 0-.076 3.834v19.36h-4.29v-6.91l.077-2.39h-.038c-.962 2.049-2.771 3.074-5.428 3.074-1.949 0-3.455-.76-4.518-2.278-1.037-1.518-1.556-3.631-1.556-6.339zm11.502-.076c0-1.771-.304-3.15-.911-4.137-.582-.987-1.455-1.48-2.62-1.48-2.302 0-3.454 1.897-3.454 5.693 0 3.77 1.139 5.656 3.416 5.656 1.14 0 2.012-.493 2.62-1.48.632-.987.949-2.405.949-4.252zm10.799-8.275v9.338c0 2.936.987 4.403 2.961 4.403 1.038 0 1.873-.443 2.505-1.328.658-.911.987-2.063.987-3.455v-8.958h4.328v12.944c0 1.417.038 2.657.114 3.72h-4.1c-.126-1.468-.19-2.569-.19-3.302h-.076c-.582 1.265-1.316 2.189-2.201 2.77-.886.557-1.936.836-3.15.836-1.772 0-3.139-.532-4.1-1.594-.937-1.089-1.405-2.683-1.405-4.783V17.335h4.327zm13.267-2.999v-3.15h4.328v3.15h-4.328zm0 19.663V17.335h4.328v16.664h-4.328zm17.648.001v-9.34c0-2.935-.987-4.403-2.961-4.403-1.037 0-1.885.455-2.543 1.366-.632.886-.949 2.038-.949 3.455v8.92h-4.327V21.093c0-.886-.013-1.62-.038-2.202-.025-.582-.051-1.1-.076-1.556h4.1c.025.202.063.734.113 1.594.076.835.114 1.417.114 1.746h.038c.582-1.265 1.316-2.189 2.202-2.77.886-.583 1.936-.874 3.151-.874 1.771 0 3.125.544 4.061 1.633.962 1.088 1.443 2.682 1.443 4.782V34h-4.328zm6.548-19.664v-3.15h4.328v3.15h-4.328zm0 19.663V17.335h4.328v16.664h-4.328zm17.269.001-3.872-6.036-3.91 6.035h-4.593l6.074-8.617-5.808-8.047h4.669l3.568 5.466 3.53-5.466h4.707l-5.808 8.01 6.15 8.654h-4.707z"/></svg>