<svg xmlns="http://www.w3.org/2000/svg" width="172" height="41" fill="none"><path fill="#3BC56A" fill-rule="evenodd" d="M20.684 40.137c11.045 0 20-8.955 20-20 0-11.046-8.955-20-20-20-11.046 0-20 8.954-20 20 0 11.045 8.954 20 20 20zm6.239-30.683c.304-1.08-.743-1.717-1.7-1.036l-13.346 9.508c-1.037.739-.874 2.21.245 2.21h3.514v-.026h6.85l-5.581 1.969-2.46 8.74c-.304 1.08.742 1.718 1.699 1.036l13.347-9.508c1.036-.739.873-2.21-.245-2.21h-5.33l3.007-10.683z" clip-rule="evenodd"/><path fill="#192129" d="M48.897 31V9.182h4.612v18.015h9.354V31H48.897zm26.429-6.968v-9.396h4.539V31h-4.358v-2.973h-.17a4.832 4.832 0 0 1-1.843 2.312c-.852.583-1.893.874-3.121.874-1.094 0-2.057-.249-2.888-.746-.83-.497-1.48-1.204-1.95-2.12-.46-.916-.695-2.013-.702-3.292V14.636h4.538v9.61c.007.966.266 1.729.778 2.29.511.561 1.197.842 2.056.842.547 0 1.058-.125 1.534-.373.476-.256.86-.632 1.15-1.13.299-.497.445-1.111.437-1.843zM82.495 31V14.636h4.325v2.887h.192c.34-.959.909-1.715 1.704-2.269.796-.554 1.748-.83 2.856-.83 1.122 0 2.077.28 2.865.84.789.555 1.314 1.308 1.577 2.26h.17c.334-.938.938-1.688 1.812-2.249.88-.568 1.92-.852 3.121-.852 1.527 0 2.766.487 3.718 1.46.959.966 1.438 2.336 1.438 4.112V31h-4.527V20.89c0-.91-.242-1.591-.725-2.046-.483-.454-1.087-.681-1.81-.681-.825 0-1.468.262-1.93.788-.46.518-.692 1.204-.692 2.056V31h-4.4V20.794c0-.803-.23-1.442-.692-1.918-.455-.476-1.055-.713-1.8-.713a2.5 2.5 0 0 0-1.364.383 2.63 2.63 0 0 0-.948 1.055c-.235.447-.352.973-.352 1.576V31h-4.538zm33.821.32c-1.684 0-3.133-.341-4.347-1.023a7.004 7.004 0 0 1-2.791-2.92c-.654-1.264-.98-2.759-.98-4.484 0-1.684.326-3.16.98-4.432.653-1.271 1.573-2.262 2.759-2.972 1.193-.71 2.592-1.066 4.197-1.066 1.08 0 2.085.174 3.015.522a6.687 6.687 0 0 1 2.451 1.545c.703.689 1.25 1.555 1.64 2.6.391 1.036.586 2.25.586 3.643v1.246h-13.817v-2.812h9.545c0-.654-.142-1.233-.426-1.737a3.048 3.048 0 0 0-1.183-1.182c-.497-.292-1.076-.437-1.736-.437-.689 0-1.3.16-1.832.48a3.356 3.356 0 0 0-1.236 1.267 3.582 3.582 0 0 0-.458 1.758v2.674c0 .81.149 1.51.447 2.099a3.27 3.27 0 0 0 1.289 1.363c.554.32 1.211.48 1.971.48.504 0 .966-.071 1.385-.213a2.873 2.873 0 0 0 1.076-.64 2.78 2.78 0 0 0 .682-1.044l4.197.277a5.736 5.736 0 0 1-1.31 2.642c-.653.746-1.499 1.328-2.536 1.747-1.029.412-2.219.618-3.568.618zm23.087-12.018-4.155.256a2.15 2.15 0 0 0-.458-.959 2.425 2.425 0 0 0-.927-.692c-.376-.178-.827-.267-1.353-.267-.703 0-1.296.15-1.779.448-.483.291-.724.682-.724 1.172 0 .39.156.72.468.99.313.27.849.487 1.609.65l2.962.597c1.591.327 2.777.852 3.558 1.577.781.724 1.172 1.676 1.172 2.855 0 1.072-.316 2.013-.948 2.823-.625.81-1.485 1.442-2.579 1.896-1.086.448-2.34.671-3.76.671-2.166 0-3.892-.45-5.178-1.353-1.278-.909-2.027-2.144-2.248-3.707l4.464-.234c.135.66.462 1.165.98 1.513.519.34 1.183.51 1.992.51.796 0 1.435-.152 1.918-.457.49-.313.739-.714.746-1.204-.007-.412-.181-.75-.522-1.012-.341-.27-.867-.476-1.577-.618l-2.834-.565c-1.598-.32-2.787-.873-3.569-1.662-.774-.788-1.161-1.793-1.161-3.015 0-1.05.284-1.956.852-2.716.576-.76 1.382-1.346 2.419-1.758 1.044-.412 2.265-.618 3.665-.618 2.066 0 3.693.437 4.879 1.31 1.193.874 1.889 2.064 2.088 3.57zm15.846 0-4.155.256a2.15 2.15 0 0 0-.458-.959 2.44 2.44 0 0 0-.927-.692c-.377-.178-.828-.267-1.353-.267-.703 0-1.296.15-1.779.448-.483.291-.725.682-.725 1.172 0 .39.157.72.469.99.313.27.849.487 1.609.65l2.961.597c1.591.327 2.777.852 3.559 1.577.781.724 1.171 1.676 1.171 2.855 0 1.072-.316 2.013-.948 2.823-.625.81-1.484 1.442-2.578 1.896-1.086.448-2.34.671-3.76.671-2.167 0-3.893-.45-5.178-1.353-1.278-.909-2.028-2.144-2.248-3.707l4.464-.234c.135.66.462 1.165.98 1.513.518.34 1.183.51 1.992.51.796 0 1.435-.152 1.918-.457.49-.313.738-.714.746-1.204-.008-.412-.182-.75-.522-1.012-.341-.27-.867-.476-1.577-.618l-2.834-.565c-1.598-.32-2.788-.873-3.569-1.662-.774-.788-1.161-1.793-1.161-3.015 0-1.05.284-1.956.852-2.716.575-.76 1.382-1.346 2.418-1.758 1.045-.412 2.266-.618 3.665-.618 2.067 0 3.693.437 4.88 1.31 1.193.874 1.889 2.064 2.088 3.57zm6.896 12.007c-1.044 0-1.974-.181-2.791-.544a4.493 4.493 0 0 1-1.939-1.63c-.468-.724-.703-1.626-.703-2.706 0-.909.167-1.672.501-2.29a4.05 4.05 0 0 1 1.364-1.491 6.6 6.6 0 0 1 1.96-.853 14.94 14.94 0 0 1 2.322-.405 56.366 56.366 0 0 0 2.301-.277c.583-.092 1.005-.227 1.268-.404.263-.178.394-.44.394-.789v-.064c0-.674-.213-1.196-.639-1.566-.419-.369-1.016-.554-1.79-.554-.816 0-1.466.181-1.949.544-.483.355-.803.802-.959 1.342l-4.198-.34c.214-.995.633-1.855 1.258-2.58.625-.73 1.431-1.292 2.418-1.682.994-.398 2.145-.597 3.452-.597.909 0 1.779.107 2.61.32a6.83 6.83 0 0 1 2.226.99 4.806 4.806 0 0 1 1.545 1.726c.376.696.565 1.53.565 2.504V31h-4.304v-2.27h-.128a4.628 4.628 0 0 1-1.055 1.354 4.88 4.88 0 0 1-1.587.905c-.618.213-1.332.32-2.142.32zm1.3-3.132c.668 0 1.257-.132 1.769-.395.511-.27.912-.632 1.203-1.086.292-.455.437-.97.437-1.545v-1.736a2.424 2.424 0 0 1-.586.255 10.67 10.67 0 0 1-.82.203c-.305.056-.611.11-.916.16-.306.042-.583.081-.831.117a5.614 5.614 0 0 0-1.396.373c-.398.17-.706.4-.927.692-.22.284-.33.64-.33 1.065 0 .618.224 1.09.671 1.417.455.32 1.03.48 1.726.48z"/></svg>