<svg xmlns="http://www.w3.org/2000/svg" width="149" height="41" fill="none"><path fill="#7DB535" d="M25.41 1.978 21.479.924l-3.315 12.37-2.992-11.168-3.933 1.054 3.233 12.065-8.053-8.052-2.879 2.879 8.833 8.833-11-2.948L.318 19.89l12.019 3.22a8.144 8.144 0 1 1 15.869-.011l10.923 2.927 1.053-3.933-12.066-3.233 11-2.948-1.053-3.933-12.066 3.233 8.052-8.052-2.879-2.88-8.71 8.71 2.95-11.012z"/><path fill="#7FCB1E" d="M28.196 23.145a8.127 8.127 0 0 1-2.026 3.732l7.913 7.913 2.88-2.88-8.767-8.765zM26.09 26.96a8.137 8.137 0 0 1-3.639 2.152l2.88 10.746 3.933-1.053L26.09 26.96zm-3.786 2.192a8.157 8.157 0 0 1-2.033.256 8.15 8.15 0 0 1-2.172-.293l-2.882 10.756 3.933 1.054 3.154-11.773zm-4.345-.078a8.142 8.142 0 0 1-3.575-2.183L6.45 34.823l2.88 2.88 8.628-8.63zm-3.641-2.253a8.125 8.125 0 0 1-1.975-3.686L1.385 26.07l1.054 3.933 11.88-3.183z"/><path fill="#322727" d="M64.081 11.757 57.095 32h-4.634l-6.93-20.244h3.906l5.348 15.498 5.39-15.498h3.906zm1.792 0h4.074V32h-4.074V11.757zM89.194 32h-4.242l-3.29-7.797H77.56V32h-4.074V11.757h8.54c1.615 0 2.935.256 3.962.77 1.027.513 1.783 1.227 2.268 2.142.485.905.728 1.95.728 3.136 0 1.064-.168 1.964-.504 2.702a5.344 5.344 0 0 1-1.302 1.82 7.343 7.343 0 0 1-1.75 1.19L89.194 32zm-7.896-10.947c1.092 0 1.955-.294 2.59-.882.644-.588.966-1.344.966-2.268 0-.934-.308-1.671-.924-2.212-.616-.542-1.395-.812-2.338-.812H77.56v6.174h3.738zM91.982 32V11.758h13.902l-.014 3.444h-9.786v4.914h8.498v3.374h-8.526v5.026l9.968.014V32H91.982zm25.078.28c-1.913 0-3.57-.415-4.97-1.245-1.391-.84-2.469-2.03-3.234-3.57-.756-1.55-1.134-3.398-1.134-5.544 0-2.156.383-4.014 1.148-5.572.775-1.56 1.862-2.758 3.262-3.598 1.4-.85 3.043-1.274 4.928-1.274 1.876 0 3.509.42 4.9 1.26 1.391.84 2.464 2.039 3.22 3.598.765 1.558 1.148 3.42 1.148 5.586 0 2.137-.378 3.98-1.134 5.53-.747 1.549-1.815 2.744-3.206 3.584-1.391.83-3.033 1.246-4.928 1.246zm0-3.36c.989 0 1.843-.233 2.562-.7.728-.475 1.288-1.222 1.68-2.24.392-1.026.588-2.36.588-4.003 0-1.69-.201-3.057-.602-4.102-.392-1.046-.952-1.811-1.68-2.296-.719-.495-1.568-.742-2.548-.742s-1.834.247-2.562.742c-.728.485-1.293 1.255-1.694 2.31-.401 1.045-.602 2.408-.602 4.088 0 1.652.201 2.986.602 4.004.401 1.017.966 1.764 1.694 2.24.728.466 1.582.7 2.562.7zm25.173-17.163h4.088V32h-3.682l-9.618-13.93V32h-4.074V11.757h4.046l9.24 13.398V11.757z"/></svg>