<svg xmlns="http://www.w3.org/2000/svg" width="196" height="42" fill="none"><path fill="#E31587" d="M28.489 20.383a5.12 5.12 0 0 0-1.465 4.101L27 24.459a6.08 6.08 0 0 1-6.572 6.571l.026.026a5.15 5.15 0 0 0-4.117 8.77 5.149 5.149 0 0 0 8.766-4.125l.027.025a6.08 6.08 0 0 1 6.571-6.572l-.026-.025a5.139 5.139 0 1 0-3.181-8.746h-.004z"/><path fill="#FD49AC" d="m18.161 27.755-.026-.026a5.085 5.085 0 0 0 5.567-5.563l.027.025a6.082 6.082 0 0 1 6.572-6.572l-.027-.025a5.147 5.147 0 0 0 5.554-6.013 5.15 5.15 0 0 0-10.2 1.368l-.024-.027a6.084 6.084 0 0 1-3.971 6.224 6.08 6.08 0 0 1-2.601.348l.025.027a5.085 5.085 0 0 0-5.568 5.563l-.025-.025a6.083 6.083 0 0 1-6.571 6.572l.025.025a5.147 5.147 0 0 0-5.554 6.013A5.149 5.149 0 0 0 11.563 34.3l.027.025a6.077 6.077 0 0 1 3.97-6.223 6.083 6.083 0 0 1 2.601-.348z"/><path fill="#FF83C7" d="M8.778 24.945a5.113 5.113 0 0 0 1.463-4.1l.026.025a6.083 6.083 0 0 1 6.575-6.572l-.027-.025a5.147 5.147 0 1 0-4.645-4.645l-.025-.025a6.08 6.08 0 0 1-6.572 6.571l.025.026a5.14 5.14 0 1 0 3.183 8.745h-.003z"/><path fill="#382630" d="m44.763 31.953 7.861-10.784c1.887-2.666 3.164-4.512 3.831-5.538l1.908-3.03-6.4.23c-.728.03-1.318.087-1.77.17-.45.071-.804.22-1.06.445-.442.38-.724 1.262-.847 2.646 0 .206-.24.364-.723.477a2.02 2.02 0 0 1-.477.047c-.195 0-.349-.093-.461-.277a3.734 3.734 0 0 1-.293-.754 10.45 10.45 0 0 1-.2-1.016 12.629 12.629 0 0 1-.153-1.8c0-.512.02-.917.061-1.215.041-.308.118-.543.23-.707.196-.288.611-.431 1.247-.431h14.06c.38 0 .775.236 1.185.707.4.462.539.826.416 1.093L49.455 31.753l7.97-.307c1.394-.062 2.343-.39 2.845-.985.431-.513.713-1.518.846-3.015.01-.103.118-.2.323-.293.216-.092.457-.138.723-.138.277 0 .467.097.57.292.112.195.21.477.292.846.092.37.17.754.23 1.154.124.8.185 1.492.185 2.077 0 .574-.077 1.03-.23 1.37a1.72 1.72 0 0 1-.693.784c-.512.307-1.41.461-2.692.461H46.24c-.41 0-.8-.287-1.17-.861-.368-.554-.47-.949-.307-1.185zm19.883-6.23c0-1.241.128-2.344.384-3.308.257-.964.6-1.825 1.03-2.584a9.26 9.26 0 0 1 1.54-2.016 9.277 9.277 0 0 1 1.907-1.43c1.333-.76 2.646-1.139 3.938-1.139 1.292 0 2.328.231 3.108.693a5.57 5.57 0 0 1 1.907 1.815c.913 1.446 1.37 3.369 1.37 5.769 0 .892-.375 1.349-1.123 1.369l-10.738.23c.061 2.226.635 3.872 1.723 4.939.923.902 2.117 1.354 3.584 1.354 2.184 0 3.959-.457 5.323-1.37.092 0 .205.077.338.231.257.308.385.575.385.8 0 .493-.615 1.123-1.846 1.893-1.416.882-3.067 1.323-4.954 1.323-2.461 0-4.395-.785-5.8-2.354-1.384-1.538-2.076-3.61-2.076-6.215zm3.415-2.585c2.953-.143 5.656-.333 8.107-.569.113-3.261-1.015-4.892-3.384-4.892-1.323 0-2.405.513-3.246 1.538-.77.944-1.262 2.252-1.477 3.923zm21.605 10.938c-.205-.051-.533-.077-.984-.077h-4.908c-.984 0-1.615-.174-1.892-.523a.693.693 0 0 1-.17-.461c0-.431.083-.749.247-.954.246.082.523.123.83.123.319 0 .554-.128.708-.385.164-.256.241-.733.231-1.43V20.308c0-.964-.18-1.564-.538-1.8-.144-.093-.334-.139-.57-.139-.236 0-.425.036-.569.108a2.24 2.24 0 0 1-.338.154.27.27 0 0 1-.216 0 .925.925 0 0 1-.184-.17c-.154-.164-.231-.333-.231-.507 0-.185.062-.375.184-.57.134-.204.344-.435.631-.692.287-.266.616-.507.985-.723.83-.482 1.661-.723 2.492-.723.954 0 1.518.631 1.692 1.893.052.369.082.748.093 1.138 1.528-1.282 3.19-2.195 4.984-2.738a6.733 6.733 0 0 1 1.954-.293 6.71 6.71 0 0 1 1.892.262 4.011 4.011 0 0 1 1.57.846c.932.82 1.399 2.102 1.399 3.846v10.43c.03.8.328 1.293.892 1.477.154.051.344.098.569.139.226.04.426.092.6.153.185.052.329.113.431.185.175.133.262.349.262.646 0 .359-.082.641-.246.846-.206-.051-.534-.077-.985-.077h-4.907c-.985 0-1.616-.174-1.893-.523a.693.693 0 0 1-.169-.461c0-.431.082-.749.246-.954.246.082.472.123.677.123.215 0 .395-.026.539-.077a.723.723 0 0 0 .338-.292c.144-.246.215-.728.215-1.446v-9.077c0-1.743-.517-2.718-1.553-2.923a6.482 6.482 0 0 0-1.2-.092 6.52 6.52 0 0 0-1.57.215 9.656 9.656 0 0 0-1.615.554c-.964.43-1.774.974-2.43 1.63v9.954c.03.8.323 1.293.876 1.477.165.051.354.098.57.139.225.04.43.092.615.153.185.052.328.113.43.185.175.133.262.349.262.646 0 .359-.082.641-.246.846zm16.083-21.691a2.95 2.95 0 0 1-.97-.154 2.296 2.296 0 0 1-.753-.477c-.452-.43-.677-1.01-.677-1.738 0-.698.266-1.287.8-1.77a2.6 2.6 0 0 1 1.846-.722c.718 0 1.292.215 1.723.646.431.43.646 1.015.646 1.753 0 .698-.256 1.288-.769 1.77-.503.461-1.118.692-1.846.692zm-.939 21.614c-1.579 0-2.369-.359-2.369-1.077 0-.369.082-.656.246-.861.246.082.472.123.677.123.954 0 1.421-.605 1.4-1.815V20.06c0-.717-.102-1.215-.308-1.492-.194-.287-.548-.43-1.061-.43-.38 0-.723.046-1.031.138-.184.02-.318-.123-.4-.43-.072-.278-.031-.519.123-.724.154-.215.39-.436.708-.661a6.102 6.102 0 0 1 1.077-.616c.841-.4 1.543-.6 2.107-.6.564 0 .98.082 1.247.246.276.164.487.385.63.662.226.451.339 1.18.339 2.184V30.63c.03.81.323 1.303.877 1.477.153.051.343.098.569.139.225.04.425.092.6.153.184.052.328.113.431.185.174.133.261.349.261.646 0 .37-.077.651-.231.846-.215-.051-.543-.077-.984-.077h-4.908zm11.821-10.491-.015 4.045c0 1.693.087 2.713.262 3.062.174.338.379.543.615.615.236.062.538.093.908.093.369 0 .702-.026 1-.077.307-.062.594-.139.861-.231.267-.093.523-.195.769-.308l.754-.323c.174-.061.369.118.585.538a.829.829 0 0 1 .092.4c0 .144-.062.334-.185.57-.123.236-.364.507-.723.815a6.06 6.06 0 0 1-1.23.8c-1.026.523-1.949.785-2.77.785-.81 0-1.471-.047-1.984-.139-.513-.092-.949-.277-1.308-.554-.738-.574-1.107-1.625-1.107-3.153V18.338h-1.523c-.318 0-.549-.102-.693-.307-.246-.318-.369-.585-.369-.8 0-.36.087-.56.262-.6 1.63-.277 2.784-1.487 3.461-3.63.195-.647.349-1.41.462-2.293.492-.082.861-.123 1.107-.123.257 0 .477.128.662.385.184.256.272.553.261.892 0 .338-.005.656-.015.954-.01.297-.021.62-.031.969l-.061 2.154H122c.134.235.2.487.2.753v.477c0 .431-.23.785-.692 1.062-.461.266-.974.4-1.538.4-.554 0-.954-.005-1.2-.016-.236-.02-.467-.04-.693-.061l-.676-.092a77.534 77.534 0 0 0-.754-.062v.17l-.016 4.938zm14.852 10.568c-.205-.051-.533-.077-.984-.077h-4.908c-.984 0-1.615-.174-1.892-.523a.692.692 0 0 1-.169-.461c0-.431.082-.749.246-.954.246.082.528.123.846.123.318 0 .554-.128.708-.385.153-.256.225-.733.215-1.43V11.308c0-.708-.072-1.164-.215-1.37-.216-.327-.595-.491-1.139-.491h-.307c-.093 0-.2.015-.323.046a.46.46 0 0 1-.293-.031.787.787 0 0 1-.215-.2c-.216-.318.031-.749.738-1.292 1.036-.79 2.092-1.185 3.169-1.185 1.17 0 1.826.63 1.969 1.892.042.38.062.78.062 1.2v8.385c1.549-1.303 3.205-2.21 4.969-2.723a6.73 6.73 0 0 1 1.954-.293 6.7 6.7 0 0 1 1.892.262 3.882 3.882 0 0 1 1.554.846c.943.84 1.415 2.123 1.415 3.846v10.323c0 .85.287 1.374.862 1.569.164.061.359.113.584.154.226.04.426.092.6.153.185.052.328.113.431.185.174.133.261.349.261.646 0 .37-.076.651-.23.846-.216-.051-.544-.077-.985-.077h-4.907c-.985 0-1.616-.174-1.893-.523a.697.697 0 0 1-.169-.461c0-.441.077-.76.231-.954.256.082.533.123.831.123.297 0 .523-.108.677-.323.164-.216.256-.61.276-1.185v-9.384c0-1.743-.517-2.718-1.553-2.923a6.484 6.484 0 0 0-1.2-.092c-.472 0-.995.072-1.569.215a9.79 9.79 0 0 0-1.6.554c-.995.451-1.805.99-2.431 1.615v9.861c0 .852.287 1.375.862 1.57.164.061.358.113.584.154.226.04.426.092.6.153.185.052.328.113.431.185.174.133.261.349.261.646 0 .359-.082.641-.246.846zm15.852-21.691c-.349 0-.672-.051-.969-.154a2.3 2.3 0 0 1-.754-.477c-.451-.43-.677-1.01-.677-1.738 0-.698.267-1.287.8-1.77a2.6 2.6 0 0 1 1.846-.722c.718 0 1.292.215 1.723.646.431.43.646 1.015.646 1.753 0 .698-.256 1.288-.769 1.77-.502.461-1.118.692-1.846.692zm-.938 21.614c-1.58 0-2.37-.359-2.37-1.077 0-.369.082-.656.247-.861.246.082.471.123.676.123.954 0 1.421-.605 1.4-1.815V20.06c0-.717-.102-1.215-.307-1.492-.195-.287-.549-.43-1.062-.43-.379 0-.723.046-1.03.138-.185.02-.318-.123-.4-.43-.072-.278-.031-.519.123-.724.153-.215.389-.436.707-.661a6.102 6.102 0 0 1 1.077-.616c.841-.4 1.544-.6 2.108-.6.564 0 .979.082 1.246.246.277.164.487.385.631.662.225.451.338 1.18.338 2.184V30.63c.031.81.323 1.303.877 1.477.154.051.343.098.569.139.226.04.426.092.6.153.185.052.328.113.431.185.174.133.261.349.261.646 0 .37-.077.651-.23.846-.216-.051-.544-.077-.985-.077h-4.907zm17.405-1.954c-1.497 1.498-3.307 2.247-5.43 2.247-1.641 0-2.954-.472-3.939-1.416-.995-.953-1.492-2.19-1.492-3.707 0-1.887.841-3.303 2.523-4.246 1.518-.862 3.656-1.292 6.415-1.292h1.923c.01-.39.015-.77.015-1.139v-1.154c0-1.374-.2-2.343-.6-2.907-.451-.636-1.22-.954-2.307-.954-2.492 0-3.774.892-3.846 2.677a4.95 4.95 0 0 0 .015.692c-.205.164-.553.246-1.046.246-.482 0-.836-.056-1.061-.169a1.873 1.873 0 0 1-.569-.462c-.349-.4-.524-.907-.524-1.523 0-.625.18-1.169.539-1.63.369-.472.867-.857 1.492-1.154 1.221-.605 2.662-.908 4.323-.908 1.661 0 2.908.164 3.738.493.841.317 1.508.743 2 1.276.872.944 1.308 2.21 1.308 3.8l-.154 7.385c0 1.343.062 2.194.185 2.553.133.36.287.6.461.723.185.123.405.185.662.185.266 0 .482-.041.646-.123l.431-.2c.143-.051.266.01.369.184.113.165.169.313.169.447 0 .123-.056.287-.169.492-.103.205-.303.425-.6.661a5.145 5.145 0 0 1-.985.6c-2.041.964-3.43.739-4.169-.677a3.025 3.025 0 0 1-.323-1zm-.046-2.015c0-1.477.01-2.943.031-4.4-2.134.082-3.585.22-4.354.416-.759.184-1.308.364-1.646.538-.338.175-.605.38-.8.616-.318.39-.477.979-.477 1.769 0 .78.277 1.405.831 1.877.554.461 1.349.692 2.384.692 1.467 0 2.81-.503 4.031-1.508z"/></svg>